<?xml version="1.0" encoding="utf-8"?>
<!-- Generator: Adobe Illustrator 16.0.4, SVG Export Plug-In . SVG Version: 6.00 Build 0)  -->
<!DOCTYPE svg PUBLIC "-//W3C//DTD SVG 1.1//EN" "http://www.w3.org/Graphics/SVG/1.1/DTD/svg11.dtd">
<svg version="1.1" xmlns="http://www.w3.org/2000/svg" xmlns:xlink="http://www.w3.org/1999/xlink" x="0px" y="0px" width="1200px"
	 height="1767.72px" viewBox="0 0 1200 1767.72" enable-background="new 0 0 1200 1767.72" xml:space="preserve">
<g id="Layer_1">
</g>
<g id="dots">
	<g>
		
			<polyline fill="none" stroke="#C0C0C0" stroke-width="11.0344" stroke-linecap="round" stroke-linejoin="round" stroke-miterlimit="10" points="
			599.87,1762.21 439.75,1722.18 121.57,1406.7 44.39,852.64 22.04,494.14 176.41,156 399.84,33.79 599.87,22.1 		"/>
		
			<line fill="none" stroke="#C0C0C0" stroke-width="11.0344" stroke-linecap="round" stroke-linejoin="round" stroke-miterlimit="10" x1="599.87" y1="1535.05" x2="599.87" y2="1762.21"/>
		
			<polyline fill="none" stroke="#C0C0C0" stroke-width="11.0344" stroke-linecap="round" stroke-linejoin="round" stroke-miterlimit="10" points="
			599.87,22.1 439.75,249.7 399.84,33.79 		"/>
		
			<polyline fill="none" stroke="#C0C0C0" stroke-width="11.0344" stroke-linecap="round" stroke-linejoin="round" stroke-miterlimit="10" points="
			599.87,249.7 439.75,249.7 176.41,156 200.79,412.66 		"/>
		<path fill="#C0C0C0" d="M198.7,466.93l29.97,179.02l-89.45,61.09L198.7,466.93 M200.79,412.66l-79.22,319.8L240.7,651.1
			L200.79,412.66L200.79,412.66z"/>
		
			<polyline fill="none" stroke="#C0C0C0" stroke-width="11.0344" stroke-linecap="round" stroke-linejoin="round" stroke-miterlimit="10" points="
			240.7,651.1 599.87,494.14 480.38,730.43 240,646.91 241.4,686.93 303.24,779.02 		"/>
		
			<polyline fill="none" stroke="#C0C0C0" stroke-width="11.0344" stroke-linecap="round" stroke-linejoin="round" stroke-miterlimit="10" points="
			499.85,1129.67 318.59,888.21 243.44,999.3 170.32,844.49 243.44,804.47 318.6,772.48 480.38,730.43 		"/>
		<path fill="#C0C0C0" d="M257.48,1030.45l165.3,176.67l-139.65,92.62L257.48,1030.45 M243.44,999.3l30.47,319.8l165.84-109.99
			L243.44,999.3L243.44,999.3z"/>
		
			<polyline fill="none" stroke="#C0C0C0" stroke-width="11.0344" stroke-linecap="round" stroke-linejoin="round" stroke-miterlimit="10" points="
			273.91,1319.1 379.53,1406.7 439.75,1209.1 599.87,1223.68 499.85,1129.67 542.03,956.84 602.97,730.43 480.38,730.43 
			241.4,686.93 121.57,732.46 170.32,844.49 44.39,852.64 243.44,999.3 123.6,1129.67 273.91,1319.1 121.57,1406.7 123.6,1129.67 
			44.39,852.64 121.57,732.46 22.04,494.14 200.79,412.66 439.75,249.7 599.87,494.14 200.79,412.66 		"/>
		
			<polyline fill="none" stroke="#C0C0C0" stroke-width="11.0344" stroke-linecap="round" stroke-linejoin="round" stroke-miterlimit="10" points="
			599.87,1406.7 121.57,1406.7 599.87,1762.21 		"/>
		
			<line fill="none" stroke="#C0C0C0" stroke-width="11.0344" stroke-linecap="round" stroke-linejoin="round" stroke-miterlimit="10" x1="599.87" y1="1525.15" x2="489.69" y2="1446.71"/>
		
			<polyline fill="none" stroke="#C0C0C0" stroke-width="11.0344" stroke-linecap="round" stroke-linejoin="round" stroke-miterlimit="10" points="
			599.87,1366.67 563.24,1346.91 489.69,1359.12 379.53,1406.7 439.75,1722.18 		"/>
		
			<line fill="none" stroke="#C0C0C0" stroke-width="11.0344" stroke-linecap="round" stroke-linejoin="round" stroke-miterlimit="10" x1="599.87" y1="1223.68" x2="563.24" y2="1346.91"/>
		
			<polyline fill="none" stroke="#C0C0C0" stroke-width="11.0344" stroke-linecap="round" stroke-linejoin="round" stroke-miterlimit="10" points="
			379.53,1406.7 489.69,1446.71 599.87,1466.2 		"/>
		
			<line fill="none" stroke="#C0C0C0" stroke-width="11.0344" stroke-linecap="round" stroke-linejoin="round" stroke-miterlimit="10" x1="439.75" y1="1722.18" x2="489.69" y2="1446.71"/>
		
			<polyline fill="none" stroke="#C0C0C0" stroke-width="11.0344" stroke-linecap="round" stroke-linejoin="round" stroke-miterlimit="10" points="
			170.32,844.49 318.59,884.52 482.41,846.53 602.97,730.43 		"/>
		
			<line fill="none" stroke="#C0C0C0" stroke-width="11.0344" stroke-linecap="round" stroke-linejoin="round" stroke-miterlimit="10" x1="499.85" y1="1129.67" x2="602.97" y2="1181.93"/>
		
			<polyline fill="none" stroke="#C0C0C0" stroke-width="11.0344" stroke-linecap="round" stroke-linejoin="round" stroke-miterlimit="10" points="
			602.97,924.25 542.03,956.84 482.41,846.53 402.59,804.47 121.57,732.46 		"/>
		
			<line fill="none" stroke="#C0C0C0" stroke-width="11.0344" stroke-linecap="round" stroke-linejoin="round" stroke-miterlimit="10" x1="558.11" y1="1159.2" x2="542.03" y2="956.84"/>
		
			<line fill="none" stroke="#C0C0C0" stroke-width="11.0344" stroke-linecap="round" stroke-linejoin="round" stroke-miterlimit="10" x1="402.59" y1="804.47" x2="480.38" y2="730.43"/>
		
			<polyline fill="none" stroke="#C0C0C0" stroke-width="11.0344" stroke-linecap="round" stroke-linejoin="round" stroke-miterlimit="10" points="
			318.59,884.52 439.75,1209.1 489.69,1359.12 		"/>
		
			<polyline fill="none" stroke="#C0C0C0" stroke-width="11.0344" stroke-linecap="round" stroke-linejoin="round" stroke-miterlimit="10" points="
			600.13,1762.21 760.25,1722.18 1078.43,1406.7 1155.61,852.64 1177.96,494.14 1023.59,156 800.16,33.79 600.13,22.1 		"/>
		
			<polyline fill="none" stroke="#C0C0C0" stroke-width="11.0344" stroke-linecap="round" stroke-linejoin="round" stroke-miterlimit="10" points="
			600.13,22.1 760.25,249.7 800.16,33.79 		"/>
		
			<polyline fill="none" stroke="#C0C0C0" stroke-width="11.0344" stroke-linecap="round" stroke-linejoin="round" stroke-miterlimit="10" points="
			600.13,249.7 760.25,249.7 1023.59,156 999.21,412.66 		"/>
		<path fill="#C0C0C0" d="M1001.3,466.93l59.48,240.11l-89.44-61.09L1001.3,466.93 M999.21,412.66L959.3,651.1l119.13,81.37
			L999.21,412.66L999.21,412.66z"/>
		
			<polyline fill="none" stroke="#C0C0C0" stroke-width="11.0344" stroke-linecap="round" stroke-linejoin="round" stroke-miterlimit="10" points="
			959.3,651.1 600.13,494.14 719.62,730.43 960,646.91 958.6,686.93 896.76,779.02 		"/>
		
			<polyline fill="none" stroke="#C0C0C0" stroke-width="11.0344" stroke-linecap="round" stroke-linejoin="round" stroke-miterlimit="10" points="
			700.15,1129.67 881.41,888.21 956.55,999.3 1029.68,844.49 956.55,804.47 881.4,772.48 719.62,730.43 		"/>
		<path fill="#C0C0C0" d="M942.51,1030.45l-25.65,269.28l-139.65-92.62L942.51,1030.45 M956.55,999.3L760.25,1209.1l165.84,109.99
			L956.55,999.3L956.55,999.3z"/>
		
			<polyline fill="none" stroke="#C0C0C0" stroke-width="11.0344" stroke-linecap="round" stroke-linejoin="round" stroke-miterlimit="10" points="
			926.09,1319.1 820.47,1406.7 760.25,1209.1 600.13,1223.68 700.15,1129.67 657.97,956.84 597.03,730.43 719.62,730.43 
			958.6,686.93 1078.43,732.46 1029.68,844.49 1155.61,852.64 956.55,999.3 1076.4,1129.67 926.09,1319.1 1078.43,1406.7 
			1076.4,1129.67 1155.61,852.64 1078.43,732.46 1177.96,494.14 999.21,412.66 760.25,249.7 600.13,494.14 999.21,412.66 		"/>
		
			<polyline fill="none" stroke="#C0C0C0" stroke-width="11.0344" stroke-linecap="round" stroke-linejoin="round" stroke-miterlimit="10" points="
			600.13,1406.7 1078.43,1406.7 600.13,1762.21 		"/>
		
			<line fill="none" stroke="#C0C0C0" stroke-width="11.0344" stroke-linecap="round" stroke-linejoin="round" stroke-miterlimit="10" x1="600.13" y1="1525.15" x2="710.31" y2="1446.71"/>
		
			<polyline fill="none" stroke="#C0C0C0" stroke-width="11.0344" stroke-linecap="round" stroke-linejoin="round" stroke-miterlimit="10" points="
			600.13,1366.67 636.76,1346.91 710.31,1359.12 820.47,1406.7 760.25,1722.18 		"/>
		
			<line fill="none" stroke="#C0C0C0" stroke-width="11.0344" stroke-linecap="round" stroke-linejoin="round" stroke-miterlimit="10" x1="600.13" y1="1223.68" x2="636.76" y2="1346.91"/>
		
			<polyline fill="none" stroke="#C0C0C0" stroke-width="11.0344" stroke-linecap="round" stroke-linejoin="round" stroke-miterlimit="10" points="
			820.47,1406.7 710.31,1446.71 600.13,1466.2 		"/>
		
			<line fill="none" stroke="#C0C0C0" stroke-width="11.0344" stroke-linecap="round" stroke-linejoin="round" stroke-miterlimit="10" x1="760.25" y1="1722.18" x2="710.31" y2="1446.71"/>
		
			<polyline fill="none" stroke="#C0C0C0" stroke-width="11.0344" stroke-linecap="round" stroke-linejoin="round" stroke-miterlimit="10" points="
			1029.68,844.49 881.41,884.52 717.59,846.53 597.03,730.43 		"/>
		
			<line fill="none" stroke="#C0C0C0" stroke-width="11.0344" stroke-linecap="round" stroke-linejoin="round" stroke-miterlimit="10" x1="700.15" y1="1129.67" x2="597.03" y2="1181.93"/>
		
			<polyline fill="none" stroke="#C0C0C0" stroke-width="11.0344" stroke-linecap="round" stroke-linejoin="round" stroke-miterlimit="10" points="
			597.03,924.25 657.97,956.84 717.59,846.53 797.41,804.47 1078.43,732.46 		"/>
		
			<line fill="none" stroke="#C0C0C0" stroke-width="11.0344" stroke-linecap="round" stroke-linejoin="round" stroke-miterlimit="10" x1="657.97" y1="956.84" x2="641.89" y2="1159.2"/>
		
			<line fill="none" stroke="#C0C0C0" stroke-width="11.0344" stroke-linecap="round" stroke-linejoin="round" stroke-miterlimit="10" x1="797.41" y1="804.47" x2="719.62" y2="730.43"/>
		
			<polyline fill="none" stroke="#C0C0C0" stroke-width="11.0344" stroke-linecap="round" stroke-linejoin="round" stroke-miterlimit="10" points="
			881.41,884.52 760.25,1209.1 710.31,1359.12 		"/>
		
			<line fill="none" stroke="#C0C0C0" stroke-width="11.0344" stroke-linecap="round" stroke-linejoin="round" stroke-miterlimit="10" x1="599.87" y1="489.66" x2="599.87" y2="735.01"/>
		<path fill="#2FC3C7" d="M580.93,22.1c0,12.2,9.87,22.1,22.04,22.1c12.17,0,22.04-9.9,22.04-22.1S615.13,0,602.97,0
			C590.8,0,580.93,9.9,580.93,22.1z"/>
		<path fill="#639DC7" d="M578.09,494.14c0,12.2,9.86,22.1,22.04,22.1c12.17,0,22.04-9.89,22.04-22.1s-9.87-22.1-22.04-22.1
			C587.96,472.04,578.09,481.93,578.09,494.14z"/>
		<path fill="#2FC3C7" d="M577.24,1223.68c0,12.2,9.87,22.1,22.04,22.1s22.04-9.9,22.04-22.1c0-12.21-9.87-22.1-22.04-22.1
			S577.24,1211.46,577.24,1223.68z"/>
		<path fill="#639DC7" d="M577.24,924.25c0,12.2,9.87,22.1,22.04,22.1s22.04-9.9,22.04-22.1c0-12.21-9.87-22.1-22.04-22.1
			S577.24,912.04,577.24,924.25z"/>
		<path fill="#2FC3C7" d="M519.99,956.84c0,12.2,9.87,22.1,22.04,22.1s22.04-9.9,22.04-22.1c0-12.21-9.87-22.1-22.04-22.1
			S519.99,944.63,519.99,956.84z"/>
		<path fill="#639DC7" d="M577.43,731.11c0,12.21,9.87,22.1,22.04,22.1s22.04-9.89,22.04-22.1c0-12.2-9.87-22.1-22.04-22.1
			S577.43,718.91,577.43,731.11z"/>
		<path fill="#9474CB" d="M577.24,1525.15c0,12.2,9.87,22.1,22.04,22.1s22.04-9.9,22.04-22.1c0-12.21-9.87-22.1-22.04-22.1
			S577.24,1512.93,577.24,1525.15z"/>
		<path fill="#639DC7" d="M420.46,1722.18c0,12.21,9.86,22.1,22.04,22.1c12.17,0,22.04-9.88,22.04-22.1c0-12.2-9.86-22.1-22.04-22.1
			C430.33,1700.08,420.46,1709.98,420.46,1722.18z"/>
		<path fill="#639DC7" d="M357.49,1406.7c0,12.2,9.86,22.1,22.04,22.1c12.17,0,22.04-9.9,22.04-22.1c0-12.21-9.86-22.1-22.04-22.1
			C367.35,1384.6,357.49,1394.48,357.49,1406.7z"/>
		<path fill="#9474CB" d="M99.53,1406.7c0,12.2,9.87,22.1,22.04,22.1s22.04-9.9,22.04-22.1c0-12.21-9.87-22.1-22.04-22.1
			S99.53,1394.48,99.53,1406.7z"/>
		<path fill="#9474CB" d="M251.87,1319.1c0,12.21,9.86,22.1,22.04,22.1c12.17,0,22.04-9.88,22.04-22.1c0-12.2-9.86-22.1-22.04-22.1
			C261.73,1297,251.87,1306.9,251.87,1319.1z"/>
		<path fill="#639DC7" d="M101.56,1129.67c0,12.2,9.86,22.1,22.04,22.1s22.04-9.9,22.04-22.1c0-12.21-9.86-22.1-22.04-22.1
			S101.56,1117.46,101.56,1129.67z"/>
		<path fill="#9474CB" d="M418.43,1209.1c0,12.2,9.87,22.1,22.04,22.1s22.04-9.9,22.04-22.1c0-12.2-9.87-22.1-22.04-22.1
			S418.43,1196.9,418.43,1209.1z"/>
		<path fill="#9474CB" d="M475.3,1127.63c0,12.2,9.86,22.1,22.04,22.1c12.17,0,22.04-9.9,22.04-22.1c0-12.2-9.86-22.1-22.04-22.1
			C485.17,1105.53,475.3,1115.43,475.3,1127.63z"/>
		<path fill="#5B5B5B" d="M318.59,873.77c22.04,0,39.92-17.93,39.92-40c0-22.12-17.88-40.05-39.92-40.05
			c-22.02,0-39.9,17.93-39.9,40.05C278.69,855.84,296.56,873.77,318.59,873.77z"/>
		<path fill="#9474CB" d="M148.28,844.49c0,12.2,9.87,22.1,22.04,22.1c12.17,0,22.04-9.89,22.04-22.1c0-12.21-9.87-22.1-22.04-22.1
			C158.15,822.4,148.28,832.29,148.28,844.49z"/>
		<path fill="#2FC3C7" d="M221.4,999.3c0,12.21,9.87,22.1,22.04,22.1s22.04-9.88,22.04-22.1c0-12.2-9.87-22.1-22.04-22.1
			S221.4,987.1,221.4,999.3z"/>
		<path fill="#639DC7" d="M22.35,852.64c0,12.2,9.87,22.1,22.04,22.1s22.04-9.9,22.04-22.1s-9.87-22.1-22.04-22.1
			S22.35,840.44,22.35,852.64z"/>
		<path fill="#639DC7" d="M99.53,732.46c0,12.2,9.87,22.1,22.04,22.1s22.04-9.9,22.04-22.1s-9.87-22.1-22.04-22.1
			S99.53,720.26,99.53,732.46z"/>
		<path fill="#2FC3C7" d="M219.37,646.91c0,12.2,9.86,22.1,22.04,22.1c12.17,0,22.04-9.89,22.04-22.1s-9.86-22.1-22.04-22.1
			C229.24,624.81,219.37,634.7,219.37,646.91z"/>
		<path fill="#2FC3C7" d="M459.05,730.43c0,12.2,9.87,22.1,22.04,22.1c12.17,0,22.04-9.89,22.04-22.1c0-12.21-9.87-22.1-22.04-22.1
			C468.92,708.33,459.05,718.22,459.05,730.43z"/>
		<path fill="#9474CB" d="M178.75,412.66c0,12.2,9.86,22.1,22.04,22.1s22.04-9.9,22.04-22.1s-9.86-22.1-22.04-22.1
			S178.75,400.46,178.75,412.66z"/>
		<path fill="#9474CB" d="M0,494.14c0,12.2,9.86,22.1,22.04,22.1c12.17,0,22.04-9.89,22.04-22.1s-9.86-22.1-22.04-22.1
			C9.86,472.04,0,481.93,0,494.14z"/>
		<path fill="#9474CB" d="M154.37,156c0,12.21,9.86,22.1,22.04,22.1c12.17,0,22.04-9.89,22.04-22.1c0-12.2-9.86-22.1-22.04-22.1
			C164.24,133.9,154.37,143.8,154.37,156z"/>
		<path fill="#9474CB" d="M377.81,33.79c0,12.2,9.86,22.1,22.04,22.1c12.17,0,22.04-9.9,22.04-22.1c0-12.2-9.86-22.1-22.04-22.1
			C387.67,11.69,377.81,21.58,377.81,33.79z"/>
		<path fill="#639DC7" d="M418.43,249.71c0,12.2,9.87,22.1,22.04,22.1s22.04-9.89,22.04-22.1c0-12.21-9.87-22.1-22.04-22.1
			S418.43,237.5,418.43,249.71z"/>
		<path fill="#639DC7" d="M635.93,956.84c0,12.2,9.86,22.1,22.04,22.1c12.17,0,22.04-9.9,22.04-22.1c0-12.21-9.87-22.1-22.04-22.1
			C645.8,934.74,635.93,944.63,635.93,956.84z"/>
		<path fill="#9474CB" d="M735.46,1722.18c0,12.21,9.87,22.1,22.04,22.1c12.17,0,22.04-9.88,22.04-22.1c0-12.2-9.87-22.1-22.04-22.1
			C745.33,1700.08,735.46,1709.98,735.46,1722.18z"/>
		<path fill="#2FC3C7" d="M798.43,1406.7c0,12.2,9.87,22.1,22.04,22.1c12.17,0,22.04-9.9,22.04-22.1c0-12.21-9.86-22.1-22.04-22.1
			C808.29,1384.6,798.43,1394.48,798.43,1406.7z"/>
		<path fill="#9474CB" d="M1056.39,1406.7c0,12.2,9.87,22.1,22.04,22.1s22.04-9.9,22.04-22.1c0-12.21-9.87-22.1-22.04-22.1
			S1056.39,1394.48,1056.39,1406.7z"/>
		<path fill="#639DC7" d="M904.05,1319.1c0,12.21,9.87,22.1,22.04,22.1c12.17,0,22.04-9.88,22.04-22.1c0-12.2-9.87-22.1-22.04-22.1
			C913.92,1297,904.05,1306.9,904.05,1319.1z"/>
		<path fill="#2FC3C7" d="M1054.36,1129.67c0,12.2,9.87,22.1,22.04,22.1s22.04-9.9,22.04-22.1c0-12.21-9.87-22.1-22.04-22.1
			S1054.36,1117.46,1054.36,1129.67z"/>
		<path fill="#639DC7" d="M737.49,1209.1c0,12.2,9.87,22.1,22.04,22.1c12.18,0,22.04-9.9,22.04-22.1c0-12.2-9.86-22.1-22.04-22.1
			C747.35,1187.01,737.49,1196.9,737.49,1209.1z"/>
		<path fill="#639DC7" d="M680.62,1127.63c0,12.2,9.87,22.1,22.04,22.1c12.17,0,22.04-9.9,22.04-22.1c0-12.2-9.87-22.1-22.04-22.1
			C690.49,1105.53,680.62,1115.43,680.62,1127.63z"/>
		<path fill="#5B5B5B" d="M881.41,873.77c-22.04,0-39.92-17.93-39.92-40c0-22.12,17.88-40.05,39.92-40.05
			c22.02,0,39.9,17.93,39.9,40.05C921.31,855.84,903.43,873.77,881.41,873.77z"/>
		<path fill="#639DC7" d="M1007.64,844.49c0,12.2,9.87,22.1,22.04,22.1c12.17,0,22.04-9.89,22.04-22.1c0-12.21-9.86-22.1-22.04-22.1
			C1017.5,822.4,1007.64,832.29,1007.64,844.49z"/>
		<path fill="#2FC3C7" d="M934.52,999.3c0,12.21,9.87,22.1,22.04,22.1c12.17,0,22.04-9.88,22.04-22.1c0-12.2-9.86-22.1-22.04-22.1
			C944.38,977.2,934.52,987.1,934.52,999.3z"/>
		<path fill="#639DC7" d="M1133.57,852.64c0,12.2,9.86,22.1,22.04,22.1c12.17,0,22.04-9.9,22.04-22.1s-9.87-22.1-22.04-22.1
			C1143.44,830.54,1133.57,840.44,1133.57,852.64z"/>
		<ellipse fill="#639DC7" cx="1078.43" cy="732.46" rx="22.04" ry="22.1"/>
		<path fill="#639DC7" d="M936.55,646.91c0,12.2,9.87,22.1,22.04,22.1c12.17,0,22.04-9.89,22.04-22.1s-9.87-22.1-22.04-22.1
			C946.42,624.81,936.55,634.7,936.55,646.91z"/>
		<path fill="#639DC7" d="M696.87,730.43c0,12.2,9.86,22.1,22.04,22.1c12.17,0,22.04-9.89,22.04-22.1c0-12.21-9.87-22.1-22.04-22.1
			C706.73,708.33,696.87,718.22,696.87,730.43z"/>
		<path fill="#2FC3C7" d="M977.17,412.66c0,12.2,9.87,22.1,22.04,22.1c12.17,0,22.04-9.9,22.04-22.1s-9.87-22.1-22.04-22.1
			C987.04,390.56,977.17,400.46,977.17,412.66z"/>
		<path fill="#9474CB" d="M1155.92,494.14c0,12.2,9.87,22.1,22.04,22.1c12.17,0,22.04-9.89,22.04-22.1s-9.87-22.1-22.04-22.1
			C1165.79,472.04,1155.92,481.93,1155.92,494.14z"/>
		<path fill="#639DC7" d="M1001.54,156c0,12.21,9.86,22.1,22.04,22.1c12.17,0,22.04-9.89,22.04-22.1c0-12.2-9.87-22.1-22.04-22.1
			C1011.41,133.9,1001.54,143.8,1001.54,156z"/>
		<path fill="#639DC7" d="M778.12,33.79c0,12.2,9.87,22.1,22.04,22.1s22.04-9.9,22.04-22.1c0-12.2-9.87-22.1-22.04-22.1
			S778.12,21.58,778.12,33.79z"/>
		<path fill="#2FC3C7" d="M737.49,249.71c0,12.2,9.87,22.1,22.04,22.1c12.18,0,22.04-9.89,22.04-22.1c0-12.21-9.86-22.1-22.04-22.1
			C747.35,227.61,737.49,237.5,737.49,249.71z"/>
	</g>
</g>
</svg>
